<svg id="Layer_1" data-name="Layer 1" xmlns="http://www.w3.org/2000/svg" viewBox="0 0 1080.2 1080.25"><defs><style>.cls-1{fill:#fdfdfd;}.cls-2{fill:#f6f6f6;}.cls-3{fill:#f1f1f1;}.cls-4{fill:#cbe8fe;}.cls-5{fill:#35aaaa;}.cls-6{fill:#81e1d7;}.cls-7{fill:#34aaaa;}.cls-8{fill:#e5e5e5;}.cls-9{fill:#e3e3e3;}.cls-10{fill:#e1e1e1;}.cls-11{fill:#e2e2e2;}.cls-12{fill:#e4e4e4;}.cls-13{fill:#dfdfdf;}.cls-14{fill:#e0e0e0;}.cls-15{fill:#dbdbdb;}.cls-16{fill:#fee2c9;}.cls-17{fill:#0b4870;}.cls-18{fill:#fefefe;}.cls-19{fill:#0d4972;}.cls-20{fill:#fde2c9;}.cls-21{fill:#fdfefe;}.cls-22{fill:#e4f3fe;}.cls-23{fill:#c9e6fc;}.cls-24{fill:#3ca3b0;}.cls-25{fill:#e3f2fd;}.cls-26{fill:#f6f8f9;}.cls-27{fill:#a3bac9;}.cls-28{fill:#e5f3fe;}.cls-29{fill:#e3f2fe;}.cls-30{fill:#e2f2fe;}.cls-31{fill:#0e538b;}.cls-32{fill:#f4f5f5;}.cls-33{fill:#fbfaf9;}</style></defs><title>add-user</title><path class="cls-1" d="M1501,526.54q0,267.47.09,534.94c0,3.69-.76,4.62-4.56,4.62q-535.44-.16-1070.88,0c-4.27,0-4.75-1.13-4.74-5q0.16-535.19,0-1070.38c0-4,.73-4.89,4.83-4.89q535.19,0.18,1070.38,0c4.5,0,5,1.27,5,5.23Q1500.93,258.82,1501,526.54Z" transform="translate(-420.89 14.13)"/><path class="cls-2" d="M818.12,300c3.65,1.4,5.1-.07,5.93-3.74,6.07-26.84,3.73-52.89-8.37-77.58-10-20.44-25-36.58-45.3-47.5-1.88-1-3.64-2.25-6-3.74,12.85-4.14,25.34-7.58,38-10.38,8.56-1.9,17.08-4.07,25.72-5.47,17.77-2.89,35.44-6.42,53.33-8.61,14.26-1.74,28.46-4,42.72-5.75,10.5-1.29,21-2.22,31.59-3.19,18.44-1.7,36.87-3.56,55.35-4.84,6.27-.43,12.56-0.95,18.86-1.14,20.74-.64,41.49-1.44,62.21-2.29,31.8-1.3,63.57-.73,95.34-0.52,19.16,0.13,38.35,2,57.45,4,11.3,1.14,23,2.58,32.09,10.54,14.25,12.51,24.82,27.51,30,46.09,4.17,14.82,3.35,29.09-2.92,43.08-3.23,7.2-8.06,13.32-13.51,18.89-6.73,6.87-13.74,13.48-20.63,20.2,0,0.66.65,1.31,0,2-1,.18-2.21,0-2.85.6-11.26,9.71-20.82,21-23.86,35.77a81.92,81.92,0,0,0,2.46,42.63A88.08,88.08,0,0,0,1259,375c-1.23,1.38-2.92,1.48-4.58,1.6-1.5.11-3,.08-4.5,0.08q-210.44,0-420.89,0c-2.82,0-5.68.27-8.4-.83-2.2-1.45-2-3.6-1.66-5.78,0.84-2.71,3.36-3.51,5.49-4.74,21.33-12.28,24.58-40.1,6.62-56.83a20.05,20.05,0,0,0-9.41-5.38C820.1,302.74,817.84,302.65,818.12,300Z" transform="translate(-420.89 14.13)"/><path class="cls-3" d="M1418.09,934c2.17,0,4.33-.05,6.5,0,6.92,0.24,11.32,4.36,11.37,11.22q0.19,28.74,0,57.48c0,5.63-5.32,10.71-11.32,11.26-1.16.1-2.33,0-3.5,0q-450.07,0-900.14,0c-4.7,0-8.82-.71-12.09-4.53a11.05,11.05,0,0,1-2.94-7.66c0.07-18.49,0-37,0-55.48,0-8,4.39-12.29,12.36-12.36,5.5,0,11,0,16.49,0,3.14,1.45,2.45,4.39,2.64,6.94,0.73,10.26.64,20.58,1.89,30.81,0.67,5.47,2.59,7.43,8.05,7.55,16.12,0.37,32.25.4,48.36,0,5.17-.13,7.16-2.11,7.77-7.29,1.19-10.23,1.65-20.51,1.94-30.8,0.08-2.95-.27-6.12,2.88-8a14.42,14.42,0,0,1,5.89-.8q81.58,0,163.16,0c0.83,0,1.66.12,2.49,0.14,33.3-.3,66.59-0.1,99.89-0.1a9.55,9.55,0,0,1,4.84,1c3.07,3.84,1.71,8.2,1.48,12.42-1.17,3.37-4.07,5.59-5.79,8.64-5.69,10.06-3.14,14.86,8.22,15.25a57.75,57.75,0,0,0,19.13-2.85c6-1.85,6.48-3.58,3-8.94-2.55-3.88-6-7.09-8.2-11.28-1.06-4.47-2.1-8.93.76-13.16,2.46-1.37,5.17-1,7.8-1,27.06,0,54.12-.07,81.17,0a3.57,3.57,0,0,1,1.8.28c2.72,4.23.83,9.07,1.8,13.54,0,2.37-1.72,3.88-3,5.6a22.75,22.75,0,0,0-4.45,12c-0.26,3.46,1.3,5.37,4.75,5.69a52,52,0,0,0,27.66-4.82c3.25-1.55,3.62-3.44,1.62-6.26a54.84,54.84,0,0,0-5.62-6.34c-2-2-4.17-3.86-5.16-6.65-1-4.13-2.32-8.27.82-12.12a11,11,0,0,1,5.35-.94q61.1-.07,122.2,0c0.66,0,1.33.1,2,.12,7-.32,14-0.13,21-0.14q74.9,0,149.8,0c3,0,6-.39,8.86.92,2.83,2.25,3,5.52,2.85,8.64-0.34,8.51,1,16.91,1.19,25.39,0.19,8.24,3.23,11.1,11.31,11.12q32.67,0.08,65.34,0c8.74,0,11-1.76,11.7-10.61s1.16-17.89,1.51-26.86C1415.6,938.42,1415,935.49,1418.09,934Z" transform="translate(-420.89 14.13)"/><path class="cls-2" d="M614,733a100.36,100.36,0,0,1-53.39-18c-23.26-16.06-35.24-38.94-39.62-66.32-3-18.47-2.38-36.91-.09-55.43,3.15-25.42,9.9-49.66,22.13-72.23,12-22.2,29.31-38.74,53.1-47.94C602,470.87,608,469,614,467c2.41,2.68,1.65,6,1.65,9.07q0.07,94.7,0,189.4c0,19.82,0,39.65,0,59.47C615.61,727.7,616.18,730.67,614,733Z" transform="translate(-420.89 14.13)"/><path class="cls-4" d="M820,375l432,0c2.33,0,4.67,0,7,0,14.45,0,28.9.24,43.34,0,15.08-.27,26.3,12.3,25.74,25.68-0.44,10.44-.07,20.92-0.05,31.38,1.5,2.36,1.61,5,1.61,7.69q0,84.59,0,169.18c0,2.47.22,5-1.58,7.13q-0.07,51-.14,102.06c-2.93-.07-2.41,2.09-2.45,3.84a282.06,282.06,0,0,0,3.55,52.25c0.64,3.93,1.79,7.82,1.17,11.89-1.69,5.21.18,10.71-1.28,15.93-1.34,2.39-2.88,1-4,0-5.28-5-10.38-10.14-16-14.71a4.36,4.36,0,0,1-1.41-4,59.2,59.2,0,0,1-.09-6.51q0-185.71,0-371.42c0-9.63,0-9.64-9.53-9.64q-233.2,0-466.4,0c-3.32,0-6.67.33-9.94-.52a2.44,2.44,0,0,1-1.74-3.44A26.19,26.19,0,0,0,820,375Z" transform="translate(-420.89 14.13)"/><path class="cls-4" d="M614,733q0-133,0-266,0-33.19,0-66.39c0-15.12,10.56-25.59,25.77-25.6q51.66,0,103.32,0a27.43,27.43,0,0,0,7.85-1c15.79-1.32,31.61-.37,47.41-0.61a11.5,11.5,0,0,1,4.9.73,111,111,0,0,1,4.47,18.35,2.27,2.27,0,0,1-1.53,2.34c-2.9,1.1-5.93.76-8.91,0.76q-77,0-154,0c-8.68,0-8.69,0-8.69,8.87q0,194.21,0,388.42c0,9.42,0,9.43,9.26,9.43q103.73,0,207.46,0c4.25,0,8.27-.13,11.34-3.6a2.45,2.45,0,0,1,1.36,1.94c0,7.61.47,15.26-2,22.65-2.24,1.48-4.79,1.23-7.27,1.23q-106.14,0-212.27,0a27.2,27.2,0,0,1-5.46-.34c-4-.86-2.45-3.93-2.36-6.48-3.3-.43-5.43,3.49-8.8,2.19-8.37-6.35-12.27-14.47-12-25.26C614.33,774.17,614,753.59,614,733Z" transform="translate(-420.89 14.13)"/><path class="cls-5" d="M1418.09,934a6,6,0,0,0-1.13,3.21c-0.31,8.78-.63,17.55-1.08,26.32a56.07,56.07,0,0,1-1.11,10.31c-1.1,4.55-4.95,6-9.11,6.06q-36,.15-71.93,0c-5.53,0-9.24-4-9.59-10.32-0.49-8.93-.86-17.88-1-26.82a45.58,45.58,0,0,0-1.23-8.78,6.26,6.26,0,0,1-1.35-4.17c-0.18-14.09-1.8-28.11-2-42.19-0.09-5.48-1.19-10.86-1.08-16.37,0.22-11,3.75-14.7,14.61-14.82,3.32,0,6.63.12,9.95,0.05,2.66-.18,5.32,0,8-0.06,5-.17,6-1,5.2-6.07-2.61-16.06-1.44-32.22-1.67-48.34,0-2.44-.47-5,1.41-7.14a237.61,237.61,0,0,1,22.51-84c3.48,12.29,5.15,24.14,6.71,36,2,2.27,1.3,5,1.41,7.65,1.22,30.62-2.13,60.82-8.24,90.79-2.56,12.53-2.33,10.95,9.2,11.19,3.57,0.08,7.35-1,10.65,1.37,4.65,0,9.3.07,14,.12,6.19,0.07,10.22,3.67,9.84,9.74-0.93,14.61-1.26,29.25-2.81,43.82-0.66,6.2.37,12.54-1.09,18.73A4.24,4.24,0,0,0,1418.09,934Z" transform="translate(-420.89 14.13)"/><path class="cls-2" d="M1328,616q0-92,0-184c13.72,8.41,27.79,16.3,40.65,26,9.63,7.25,19.12,14.68,27.15,24,6.45,7.46,12.51,15.06,17.23,23.67,13.75,25.05,14.83,59.15-5.24,82.82-8.53,10.06-20.44,15.41-33.08,18.31C1359.29,610.31,1343.62,613,1328,616Z" transform="translate(-420.89 14.13)"/><path class="cls-5" d="M608.14,934a5.16,5.16,0,0,0-1.17,3.18c0.7,8.3-1.26,16.5-.92,24.76,0.19,4.53-.77,8.88-1.24,13.28s-4.5,5.62-8.12,5.66q-25.19.31-50.38,0c-5.66-.07-7.78-2.67-8.31-8.16a345.69,345.69,0,0,1-1.95-34.57,6.17,6.17,0,0,0-1.19-4.18c2.27-4.24,1.7-9,.82-13.12-1.52-7.21-.32-14.44-1.37-21.67-0.8-5.55,3.09-8.32,8.09-8.22,2.83,0.05,5.66-.06,8.48-0.11a5.49,5.49,0,0,1,2.41-.51c8-.2,8.19-0.22,7.05-8.34-1.68-12.06-.26-24.19-1.05-36.26A2.56,2.56,0,0,1,560,844c1-5.69,2-11.38,3-17.07a134.64,134.64,0,0,1,14.42-41.63c1.19,6.49,2.44,13,3.54,19.49,0.3,1.75-.35,3.68,1.09,5.2a102,102,0,0,1,1.33,22.24,346.69,346.69,0,0,1-6.29,49.45c-0.24,1.14-.49,2.28-0.68,3.43-0.82,4.83-.47,5.32,4.22,5.44a46.55,46.55,0,0,0,11.43-.73,40.09,40.09,0,0,1,9.93,0c5,0.74,8.47,4.24,8.18,9.09C609.47,910.55,609.13,922.29,608.14,934Z" transform="translate(-420.89 14.13)"/><path class="cls-6" d="M1397.12,857.88c-6.15,0-12.32-.19-18.46.18-4.35.26-5.15-1.54-4.45-5.28,2.12-11.33,4.29-22.65,6.05-34.06a306.66,306.66,0,0,0,3.8-53.88c-0.13-6,0-12,0-18,4.76-7.5,8.38-15.72,13.9-22.74,2.89-3.68,5.53-7.66,9.74-11.13a402.2,402.2,0,0,1-5.54,84.35c16.9-18.38,34.56-35.5,58.53-44.83-5.86,16.34-13.39,31.7-21.59,46.73-9,16.4-19.83,31.55-31.39,46.2C1404.38,849.73,1400.68,853.75,1397.12,857.88Z" transform="translate(-420.89 14.13)"/><path class="cls-6" d="M1354.89,794.87c0,9.28.31,18.58,0,27.85-0.36,10.45,1.09,20.74,2.12,31.07,0.32,3.27-.9,4.47-4.18,4.23-3.63-.26-7.29-0.11-10.94-0.14-5.17-3.83-8.07-9.52-11.68-14.58-5.28-7.39-10.18-15.06-15.22-22.63-3.84-5.66-7.16-11.65-10.78-17.45q-5.71-10-11.46-19.9c-0.83-1.62-1.91-3.1-2.7-4.73s-1.51-3.16,0-4.57c1.31-1.26,2.79-.33,4.15.18a12.22,12.22,0,0,1,1.76.89c4,3.32,9.27,5.11,12.11,9.88,7.23,5.37,13.35,12,19.93,18.07,3.58,1.22,5.43,3.85,6.39,7.28-2.17-7.9-4.91-15.8-5.39-24.17-1.15-9-2.33-18-3.43-27-1.73-14.21-1.77-28.49-1.35-42.77a4.91,4.91,0,0,1,.82-1.7c1.83,0.6,1.67,2.59,2.91,3.43,8.21,23.31,17.26,46.33,24.61,70C1353.24,790.33,1354.09,792.59,1354.89,794.87Z" transform="translate(-420.89 14.13)"/><path class="cls-7" d="M818.12,300c2.6,2.59,6.46,1.94,9.47,3.94,23.07,15.35,21.42,50.09-3.14,62.91-1.47.77-3,1.44-4.49,2.16-2.52-.15-2-2.23-2.16-3.67a67.07,67.07,0,0,0-1-6.87c-1.13,5.41-.15,12-7.75,13.57-9.82,1.1-18-2.73-25.66-8.35-3-2.22-2.69-6.33-5.4-8.61-2.53-6.36-6.35-12.35-6.12-19.53,0.41-12.91,6.08-22.94,16.54-30.52C797.57,298.37,807.51,297.46,818.12,300Z" transform="translate(-420.89 14.13)"/><path class="cls-6" d="M592.11,890.89c-5.31,2.18-10.84.78-16.27,0.95-2.21.07-2-2-1.68-3.39a256.24,256.24,0,0,0,5.24-30.21c1.46-13.6,4-27.19,1.69-41-0.43-2.54.34-4.93,1-7.33,4.88-8.12,9.44-16.46,16.83-24.11,0,11,.62,21.07-0.18,31.05-0.78,9.79-1.73,19.62-3.51,29.57,10.11-9.14,19.11-19.31,30.69-26.45,1-.52,2.06-1.1,3.14-1.53,2.44-1,5.36-4,7.07-2.78,2.38,1.77-1.65,4.5-1.26,7.15,0.39,1.93-.43,3.62-1.18,5.26-10,21.9-22.33,42.29-38.55,60.21A11.21,11.21,0,0,1,592.11,890.89Z" transform="translate(-420.89 14.13)"/><path class="cls-6" d="M560,844c1.31,3.69.92,7.52,0.94,11.32,0.08,11.08-.59,22.2,1.88,33.15,0.37,1.64.36,3.57-2.18,3.47-3.27-.13-6.67.83-9.76-1-14-19.14-26.91-39-37.49-60.38,12.88,6,22.78,15.64,33.15,26.84-6.68-23.71-9.42-46.57-7.69-70C547.44,805.71,554,824.73,560,844Z" transform="translate(-420.89 14.13)"/><path class="cls-2" d="M778,355.06c3.28,1.27,3.07,5.16,5.65,7.21A39.78,39.78,0,0,0,809,371.15c-0.29,3-2.28,3.82-4.89,3.87-16,0-31.94,0-47.91,0-1.76,0-3.7.63-5.21-.92,8.49-3.62,16.91-7.3,24.79-12.23C779,359.81,779.94,358.23,778,355.06Z" transform="translate(-420.89 14.13)"/><path class="cls-8" d="M1242.81,100.26c-4.23,3.31-7.94,4-11.75,4.37C1234.1,102.22,1237.59,101,1242.81,100.26Z" transform="translate(-420.89 14.13)"/><path class="cls-9" d="M1278,98.34c5.13-.79,8.78.8,12.37,2.64A31,31,0,0,1,1278,98.34Z" transform="translate(-420.89 14.13)"/><path class="cls-10" d="M1302.9,105.27c3.32,1.73,7.05,2.78,9.18,6.51l-9.83-5.4Z" transform="translate(-420.89 14.13)"/><path class="cls-11" d="M1330.2,238.92l7-9.38A13.55,13.55,0,0,1,1330.2,238.92Z" transform="translate(-420.89 14.13)"/><path class="cls-12" d="M1300.14,261.08c-3.11,3.06-6.38,4.69-10.44,4.05Z" transform="translate(-420.89 14.13)"/><path class="cls-13" d="M1331,127.48l-8.22-8.38C1326.47,121.22,1328.83,124.35,1331,127.48Z" transform="translate(-420.89 14.13)"/><path class="cls-13" d="M1350.45,195.45c-1.27-4.23.87-7.71,1-11.39C1351.78,187.79,1353,191.6,1350.45,195.45Z" transform="translate(-420.89 14.13)"/><path class="cls-10" d="M1343.44,218.22l4.08-10.86c0.15,4.18-1.37,7.79-2.91,11.39Z" transform="translate(-420.89 14.13)"/><path class="cls-13" d="M1320.81,248.06c-1.54,3.8-4.61,5.78-8.54,6.66Z" transform="translate(-420.89 14.13)"/><path class="cls-14" d="M1344.2,149.28c-2.58-4.45-4.77-7.64-5.67-11.46A19.58,19.58,0,0,1,1344.2,149.28Z" transform="translate(-420.89 14.13)"/><path class="cls-13" d="M1348.63,160.86a19.36,19.36,0,0,1,2.09,11.62C1349.51,167.74,1348.17,164.49,1348.63,160.86Z" transform="translate(-420.89 14.13)"/><path class="cls-13" d="M1255,98.95c3.47-2.65,7.2-1.87,10.92-1.24Z" transform="translate(-420.89 14.13)"/><path class="cls-10" d="M1210.75,118.44c1.27-3.06,3.11-5.46,6.77-5.56Z" transform="translate(-420.89 14.13)"/><path class="cls-15" d="M1270,270c-0.15-.66-1.13-1.31,0-2h7.86C1274.72,269.51,1272.49,270.14,1270,270Z" transform="translate(-420.89 14.13)"/><path class="cls-16" d="M804.07,375c1.59-1.33,3.72-2,4.89-3.87,4.09-2.07,7.08-4.56,5.59-10a3.82,3.82,0,0,1,2.87-4.78c2.27,3.92.5,8.68,2.53,12.61q0,3,.09,6c5.45,6.3,2.07,12.62,0,18.94,1.86,2.71.2,5.56,0.35,8.34-3.7,3-7.29,6.21-12.65,4.87-1-4.36-.13-8.81-0.72-13.19-1-3.63-1.77-7.33-3-10.88C803.14,380.33,802.87,377.71,804.07,375Z" transform="translate(-420.89 14.13)"/><path class="cls-17" d="M861.95,823l0.85-24c-2.14-3.42-1.19-7.09-.92-10.71,1.11-11.88,1.88-23.8,3.68-35.6,2.78-18.21,5.61-36.42,9.91-54.35,0.47-3.48,1.66-6.81,2.19-10.28a16.53,16.53,0,0,1,.44-2.36c4.93-18.95,9.52-38,15.87-56.54a26.39,26.39,0,0,1,1.33-3.16,4.94,4.94,0,0,1,1.23-1.33c1.62-1.09,3.47-1.07,5.3-1.08q23.23-.05,46.46,0a10.55,10.55,0,0,1,4.88.81,6.48,6.48,0,0,1,2,1.67,17,17,0,0,1,1.69,2.8A412.17,412.17,0,0,1,981,685.18c0.39,0.92.77,1.84,1.11,2.77,1.34,3.77,2.37,7.66,4,11.33A662.44,662.44,0,0,1,1007.3,776c0.88,4,1.82,8.08,2.69,12.14,1,5.39,2.08,10.78,3.09,16.18,0.93,5.71,2.49,11.34,2.36,17.2,0.6,8.46,2.13,16.8,3.1,25.21,2.21,19.19,2.19,38.43,1.89,57.69,0.57,7.19-1.17,14.15-2.16,21.19-0.57,4-3.85,5.52-6.85,7.28-5.78,2.53-11.58,4.29-17.45.21l-0.91-.34c-4.51-.23-7.22-3.05-8.92-6.77-4.18-9.13-8.51-18.21-11.51-27.83Q958.21,860.06,946,821.22c-2.35-5.49-3.26-11.39-4.9-17.09-0.45-3.17-2-6.1-2.11-9.35-0.11-1,.17-2.16-0.6-3.22-0.19-.51-0.42.25-0.24,0.32,0.87,0.34.68,1.31,0.79,2.09,0.22,3.41-.57,6.7-1,10-1.13,5.34-1.62,10.8-3,16.11-2.31,10.91-4,21.94-6,32.9-2.84,15.39-6.31,30.63-9.57,45.93-1,6.4-3,12.57-4.11,18.91-1.26,7.15-5.5,10.57-12.28,11.59-5.95,1.38-11.88,1.59-17.77-.32-6.4-2-10.18-6-11.6-12.78-1.54-7.44-4.39-14.59-5.86-22.09-3.86-16.36-5.64-33-6.43-49.72-0.24-5.12-1.16-10.21-.9-15.37C860.6,827,860.39,824.81,861.95,823Z" transform="translate(-420.89 14.13)"/><path class="cls-18" d="M1315.84,820.1l26,37.78c-4.48,0-9,0-13.45.13-5.55.11-9.53,3.77-9.37,9.23q0.71,25.19,2.83,50.31c0.46,5.44,0,11,0,16.43H1142c-1.44-1.59-1.44-3.66-1.86-5.58-4.18-18.94-17.87-29.95-37.32-30-8.8,0-17.59.06-26.39,0-2.25,0-4.75.34-6.26-2.1a14.71,14.71,0,0,1-.77-5.88q0-29.84,0-59.67c0-2.94-.33-6.07,2.41-8.25,3-1.53,6.18-1.08,9.31-1.08q107.31,0,214.61,0c5.65,0,11.32.32,16.78-1.69A3.23,3.23,0,0,1,1315.84,820.1Z" transform="translate(-420.89 14.13)"/><path class="cls-18" d="M861.95,823c0.45,24.1,2.3,48.05,7.26,71.69,0.84,3-1.34,3.35-3.36,3.59a72.83,72.83,0,0,1-8.48.16c-12.81,0-25.63,0-38.44,0-19,.05-32.65,11-36.9,29.46-0.48,2.08-.45,4.35-2,6.08H608.14c-2.31-4.06-1.65-8.65-.87-12.63,1.49-7.54,0-15.14,1.55-22.67,0.87-4.11-2.85-7.41-7.22-7.66-3.15-.18-6.32-0.11-9.49-0.14,4.09-6.81,9.86-12.31,14.52-18.71a239.72,239.72,0,0,0,26.94-47.23,17.6,17.6,0,0,1,1.26-2.11c2.33,0.05,4.65.16,7,.16Z" transform="translate(-420.89 14.13)"/><path class="cls-4" d="M1071.3,897q16.74,0,33.49,0a37.44,37.44,0,0,1,37.2,37H1012a2,2,0,0,1-.94-2.06c8.82-4.67,5.93-13.77,7.87-21,0.5-1.87.21-4,.28-5.95,0.94-9.58.94-9.59,11.18-9.59,11.27,0,22.54,0,33.81,0C1066.69,895.4,1069.21,895.3,1071.3,897Z" transform="translate(-420.89 14.13)"/><path class="cls-4" d="M780,934a37.45,37.45,0,0,1,37.08-37c15.63,0,31.26,0,46.89,0,2,0,4.56.94,5.22-2.27,1.95,7,4.23,14,5.74,21.09C876.22,921.84,879.1,926,885,928c1.43,2,1.71,4-.07,6Z" transform="translate(-420.89 14.13)"/><path class="cls-4" d="M903,928.26c6.34-1.28,10.46-4.26,11.19-11.49,0.61-6,2.6-11.87,4-17.8,0.58-2.94,2.85-3.45,5.27-3.47q22.66-.21,45.33,0c2,0,4,.36,5,2.56,3.8,9.17,7.69,18.31,11.37,27.54,1.51,3.79,5.05,5,7.92,7.13-1.12,1.81-2.95,1.25-4.53,1.25q-42.72,0-85.45,0C901.36,932.07,901.47,930.17,903,928.26Z" transform="translate(-420.89 14.13)"/><path class="cls-19" d="M903.9,947.08c3.29,4.35,6.66,8.64,9.84,13.07,2.19,3.05,1.75,5.35-2.18,6.75-9.52,3.39-19.19,5.15-29.26,3.17-6.42-1.27-7.23-2.64-5.83-9.15A24.55,24.55,0,0,1,885,946.74C891.35,944.7,897.65,944.45,903.9,947.08Z" transform="translate(-420.89 14.13)"/><path class="cls-19" d="M1012.95,946c4,4.66,8.89,8.48,11.94,13.93,1.13,2,1.48,3.58-1,4.83-10.51,5.22-21.41,7.83-33.19,5.58-2.87-.55-3.76-1.87-3.71-4.7,0.13-7.35,2.57-13.6,8.1-18.54C1000.9,945,1006.82,943.87,1012.95,946Z" transform="translate(-420.89 14.13)"/><path class="cls-20" d="M903.9,947.08L885,946.74q0-6.38-.05-12.77,0-3,.07-6a41.19,41.19,0,0,0,18,.3q0,2.84.07,5.69C903.25,938.33,902.23,942.78,903.9,947.08Z" transform="translate(-420.89 14.13)"/><path class="cls-20" d="M1012.95,946l-17.9,1.1c-2-4.56-.63-9.38-1.06-14.06a27.79,27.79,0,0,0,17.08-1.14L1012,934C1012,938,1011.67,942.1,1012.95,946Z" transform="translate(-420.89 14.13)"/><path class="cls-18" d="M1011.9,804.05a94.31,94.31,0,0,1-3.07-15.88c0.49-3.16,3.12-2.52,5.07-2.63,4.65-.26,9.32-0.09,14-0.09,29.32,0,58.63,0,87.95,0,6.53,0,13-.62,18.28-5.28a17.5,17.5,0,0,0,6.26-13.62c0.12-16,.24-32,0-48-0.17-9.57-5.75-15.89-15-18a51.28,51.28,0,0,0-11.42-1c-27.82.08-55.63-.11-83.45,0.1a8.42,8.42,0,0,1-3.45-.4,12.9,12.9,0,0,1-.6-11.8c2.67-1.36,5.55-.84,8.34-0.84q118.31,0,236.63,0c6.18,0,11.9-1.05,16.83-5,4.49-4.05,6.25-9.3,6.39-15.16s0.13-12,0-18-1.92-11.09-6.37-15.18c-4.67-3.63-9.89-5-15.83-5q-129.91.13-259.82,0c-3.11,0-6.36.64-9.26-1.2-2.08-1.72-2.54-4.23-3.15-6.64q-5.75-22.78-11.37-45.6c-0.64-2.61-2.11-5.5.9-7.78,3.06-1.17,6.26-.78,9.4-0.78q137.64,0,275.28,0c1.83,0,3.66,0,5.5,0,8.38-.06,12.76-2.53,12.87-7.24,0.12-4.89-4.36-7.45-13.12-7.51-2,0-4,0-6,0q-139.89,0-279.78,0c-3.15,0-6.34.37-9.41-.74-3.74-3.63-4.27-6.19-2.15-10.44,3.14-1.6,6.53-1,9.83-1q145.5,0,291,0c11.21,0,10.21.55,10.22-10.37q0-45,0-90c0-1.83,0-3.66-.1-5.5-0.13-2.42-1.37-3.59-3.77-3.74-2.17-.13-4.33-0.11-6.5-0.11q-160.75,0-321.49,0c-42.66-.05-85.32.22-128,0-3,0-6,.36-8.89-0.82-3.15-2.9-2.84-6.87-3-10.58a101.56,101.56,0,0,0-1.83-16.15c-2-2.78,1-5.37.31-8.11l392.87,0h89.47c6.55,0,6.55,0,6.55,6.39q0,189.44,0,378.87c0,1.91.75,4-.91,5.71l-12.11-8.87c-1.79-2.31-1.47-5-1.47-7.68,0-17.48,0-35,0-52.45,0-11.79-3.51-15.38-15.1-15.39q-54.69-.05-109.39,0c-10.41,0-14.28,3.77-14.33,14.07q-0.13,28.72,0,57.44c0,9,4,13.24,13.1,13.27,37.79,0.13,75.59.06,113.38,0a15,15,0,0,0,7.67-1.85c1.27-.73,2.63-1.59,4.17-0.51l11.27,19.86c-0.26,2.28-2.16,2.24-3.73,2.54a24.45,24.45,0,0,1-4.49.19q-138.45,0-276.91,0C1017.25,805.63,1014.34,806,1011.9,804.05Z" transform="translate(-420.89 14.13)"/><path class="cls-18" d="M1329,786.16c3.38,8,3.62,16.85,6.31,25.36L1328,803C1328.54,797.43,1326.91,791.68,1329,786.16Z" transform="translate(-420.89 14.13)"/><path class="cls-18" d="M878.88,688l-2.08,10c-2.23,2-5,1.52-7.61,1.52q-30.44.07-60.88,0a53.88,53.88,0,0,0-12.86,1.41c-6.76,1.64-11,6-12.59,12.73A49.23,49.23,0,0,0,781.51,725q0.08,17.22,0,34.43a53.25,53.25,0,0,0,1.33,11.88c1.52,6.82,5.84,11.08,12.57,12.74a52.73,52.73,0,0,0,12.86,1.42c16.14,0,32.27-.09,48.41.05,2.36,0,5.51-1,6.51,2.67L862.8,799c-0.59,4.13-2.84,5.09-7,5.08q-108.23-.25-216.47,0c-5,0-6.42-1.08-6.41-6.28q0.24-199,0-397.94c0-4.92,1.46-6,6.17-6q84,0.23,168,.09c3.33,4.16,1.34,8.76,1.11,13.22-0.74,4.55-.51,9.17-0.95,13.73-0.26,2.71-.26,5.65-2.61,7.73-5.36,1.83-10.89.7-16.34,0.92-6.14.24-6.64,0.5-6.65,6.51q-0.08,48.68,0,97.36c0,5.5.44,5.91,6.05,5.93,23.3,0.05,46.6,0,69.9,0a59.82,59.82,0,0,1,6,.22c5.73,1.75,11.07,4,13.73,10-1.51,2.08-3.8,1.74-5.9,1.79-4.47.11-8.95,0-13.42,0a16,16,0,0,0-5.4.68c-3.22,1.17-5.54,3.26-5.5,6.87s2.33,5.7,5.57,6.85a17.56,17.56,0,0,0,5.9.68c7.12,0,14.25,0,21.37,0,2.14,0,4.33-.15,6.28,1.07,2.36,2.45,2.4,5.44,1.95,8.53-1,3.39-3.88,3.22-6.5,3.27-7.81.13-15.62,0-23.43,0.07-6.94.08-11.1,2.9-11.18,7.4s4.1,7.49,11,7.57c8.64,0.1,17.28,0,25.92,0,2.31,0,4.67-.22,6.86.86,2.08,1.49,2.42,3.83,2.82,6.08,1.15,6.47,2.46,12.9,3.51,19.39a8.41,8.41,0,0,1-.86,5.08L895.81,627c-2.1,1.89-4.7,1.4-7.14,1.4-28.6,0-57.21.11-85.81,0-6.1,0-11.48,1.35-16.25,5.1-4.47,4.31-6.2,9.71-6.24,15.77,0,5.49,0,11,0,16.49,0,6.07,1.78,11.46,6.17,15.83,4.64,3.68,9.93,5.11,15.81,5.1q34.7-.09,69.4,0C874.17,686.63,876.79,686.08,878.88,688Z" transform="translate(-420.89 14.13)"/><path class="cls-4" d="M1293.92,783.06c-5.71,4.92-12.64,3.94-19.35,3.94h-105.9c-10.25,0-14.66-4.36-14.67-14.47q0-29.72,0-59.44c0-9.5,4.6-14.08,14.05-14.08h113.39c10.18,0,14.55,4.41,14.54,14.66q0,31.22-.08,62.44c-2,0-3.95-2.94-5.32-1.32-1.59,1.88,1,3.79,2,5.6C1293.07,781.25,1293.48,782.16,1293.92,783.06Z" transform="translate(-420.89 14.13)"/><path class="cls-4" d="M1011.9,804.05q143.56,0,287.13-.09c2.07,0,4.37.8,6.16-1l10.65,17.18c-6.2,2.94-12.78,3-19.47,3q-112.23-.11-224.46,0a10.32,10.32,0,0,1-6.16,1.58c-14.94,0-29.88.06-44.82,0-2.75,0-5.9.33-6.72-3.53Z" transform="translate(-420.89 14.13)"/><path class="cls-21" d="M827.46,334.68c-0.47,2.86-2.06,4.32-5,4.5s-7-1.44-9.11.82-0.5,6.07-.69,9.21c-0.2,3.28-1.08,6.17-4.93,6.29-4.16.13-5.22-2.82-5.31-6.35,0-.17,0-0.33,0-0.5-0.36-9-.36-9.06-9.36-9.47-3.15-.14-5.33-1.37-5.39-4.57s2-4.57,5.19-4.81,7.11,1.6,8.93-1c1.44-2.06.54-5.77,0.63-8.75,0.1-3.47,1-6.58,5.13-6.55s4.93,3.11,5.15,6.59c0.2,3.09-1.43,6.94.86,9.09,2,1.92,5.74.56,8.7,0.66C825.44,330,827.07,331.58,827.46,334.68Z" transform="translate(-420.89 14.13)"/><path class="cls-5" d="M877.05,548.92l-11.79-8c-6.95-2.94-12-8.46-17.08-13.59-14.86-15.05-27-32.08-34.47-52.07a150.47,150.47,0,0,1-8.92-39.31,20.77,20.77,0,0,1,.36-7.94c0.23-5.47.56-10.94,0.62-16.41,0-2,.51-3.5,2.39-4.37a45.54,45.54,0,0,0,11.6-5.13c2.84-.5,2.17,1.6,2.35,3.13,0.93,7.57.53,15.27,2.11,22.78,1.61,1.87,1.77,4.22,2.21,6.51,3,15.45,7.46,30.34,16.24,43.61,14.63,22.14,37.27,31.46,63.39,26.17,10.94-.5,21.83-0.34,32.61,1.87,11.66,2.7,22.73,7.07,33.61,12,4,1.8,6.41,4.53,7.08,8.84,0.73,4.71,3.23,9.09,2.56,14.06a26.46,26.46,0,0,0,2.27,9,35.25,35.25,0,0,1,4.66,18q6.35,26.12,12.71,52.23c0.47,1.93,1.07,3.84,1.61,5.75,0.43,1.29,1.71,2.07,2,3.42,3,12.72,5.68,25.52,8.25,38.34,0.36,1.77.84,3.58-.21,5.32-2.24,2.57-5.48,3.85-8,6.1-4.76,3.44-6,3.13-7.63-2.19q-7.44-23.71-14.48-47.55a35.79,35.79,0,0,0-1.16-3.68C979,615.92,976,606,972.89,596.19c-1.89-8-5.62-15.61-6.5-23.56-0.75,8.19-3.66,16.38-5.15,24.88-1.55,6.8-3.06,13.59-4.69,20.37-0.47,1.94-.9,3.89-2.32,5.43s-3,1.18-4.65,1.18c-16.29,0-32.58-.07-48.87.08-2.83,0-4.35-.72-4.66-3.54l-5.13-25c-3.39-6.39-3.7-13.35-3.78-20.35a22.55,22.55,0,0,0-1.26-7.65,7.88,7.88,0,0,1-2-4.94C883.44,557.44,881.72,552.48,877.05,548.92Z" transform="translate(-420.89 14.13)"/><path class="cls-4" d="M1027.1,699c1.64-1,3.48-1,5.31-1,28.62,0,57.25-.1,85.87.1,5.91,0,11.79.82,16.7,5.17,5.16,4.57,7.13,10,7.06,16.75-0.15,14.31-.59,28.65.1,42.93,0.77,15.79-9.49,24-24.38,24q-51.42,0-102.84,0c-2.05,0-4.38-.84-6.09,1.17-4.82-19.94-9-40.05-14.88-59.73-2.94-9.83-6-19.64-9-29.46,6.41-2.88,13.05-1.34,19.62-1.08,1.14,1.09,2.32,1.76,3.63.17a8.53,8.53,0,0,1,5.23.16c3.22,2.24,3,6.45,5.31,9.5C1022.11,705.32,1023.5,701,1027.1,699Z" transform="translate(-420.89 14.13)"/><path class="cls-4" d="M863.2,788.21c-1.52-1.93-3.68-1.21-5.58-1.22-17.65,0-35.29.18-52.93-.14-6.71-.12-13.42-0.74-18.78-6.26-4.93-5.08-5.55-11.31-5.74-17.48-0.42-13.8-.47-27.64,0-41.44,0.4-12.6,4.11-19.33,14.45-22.25a41.39,41.39,0,0,1,11.3-1.44c23.64,0.08,47.28,0,70.91,0-6,29.37-11.56,58.81-13.14,88.84A5.47,5.47,0,0,1,863.2,788.21Z" transform="translate(-420.89 14.13)"/><path class="cls-18" d="M895,629q-6.22,22.32-12.44,44.64c-1.15,4.14-2.21,8.31-3.3,12.47-1.64,1.09-3.51.88-5.32,0.88-24.44,0-48.87,0-73.31,0-5.56,0-10.48-1.33-14.59-5.18-4.5-4.25-6.23-9.54-6.08-15.65q0.21-8.69,0-17.4c-0.15-6.11,1.58-11.39,6.08-15.65,4.14-3.74,8.94-5.24,14.57-5.21,29.39,0.14,58.78.05,88.17,0.1C890.89,628,893.15,627.4,895,629Z" transform="translate(-420.89 14.13)"/><path class="cls-5" d="M1014.21,821c1.45,2.3,3.77,1.67,5.85,1.69q25.92,0.18,51.85.31a5.81,5.81,0,0,0-.91,3.78q0,34.39,0,68.77a8.18,8.18,0,0,0,.26,1.46q-20.93.12-41.86,0.24c-8.5,0-8.5,0-10.23,7.7,0-8.95,0-17.9-.17-26.84A346.44,346.44,0,0,0,1014.3,827,38.32,38.32,0,0,1,1014.21,821Z" transform="translate(-420.89 14.13)"/><path class="cls-5" d="M973.79,898.07c-1.27-1-2.75-1-4.25-1q-23.33,0-46.65,0c-1.88,0-3.63,0-4.69,1.87,2.25-10.87,4.62-21.7,6.7-32.6,2.83-14.82,5.43-29.68,8.15-44.52a8.22,8.22,0,0,1,.79-1.78c4.26,2.51,8.78,1.56,13.28,1,3.8,11.3,7.5,22.63,11.41,33.89C963.53,869.37,968.69,883.7,973.79,898.07Z" transform="translate(-420.89 14.13)"/><path class="cls-18" d="M984,629q7.31,23.33,14.6,46.66c1.79,5.74,1.73,5.76,6.46,2.43,3.26,2.54,2.84,5.41.74,8.42-8.56,1.16-17.12,2-25.6-.54a501.44,501.44,0,0,0-24.52-56.9,3.85,3.85,0,0,1,3-1.36q11.08-.33,22.15,0A4.91,4.91,0,0,1,984,629Z" transform="translate(-420.89 14.13)"/><path class="cls-18" d="M974,596c3.53,9.81,6.48,19.79,9.12,29.86a1.61,1.61,0,0,1-1.73,1.94c-8.91-.07-17.85,1.11-26.72-0.65l-0.9-1.22a4.71,4.71,0,0,1,.18-3.91l6.25-25C964.51,592.94,969.22,594.05,974,596Z" transform="translate(-420.89 14.13)"/><path class="cls-21" d="M1005.95,699l-21,0a45.47,45.47,0,0,1-4-11c3.08-1.87,6.49-1,9.73-.92,5.11,0.06,10.27-.84,15.33.59A10.85,10.85,0,0,1,1005.95,699Z" transform="translate(-420.89 14.13)"/><path class="cls-22" d="M895,629c-31.33,0-62.66.11-94-.11-5.83,0-10.8,1.13-15.06,5.09-0.91.27-1.33,0.05-1-1a23,23,0,0,1,16.33-6.09c31.49,0.12,63,0,94.47,0A2,2,0,0,1,895,629Z" transform="translate(-420.89 14.13)"/><path class="cls-23" d="M947.11,821.09c-3.35,3.17-11.92,2.51-13.28-1l3-16.11a4.06,4.06,0,0,1,5.3,0Z" transform="translate(-420.89 14.13)"/><path class="cls-22" d="M786,681c4.25,3.94,9.21,5.12,15,5.08,26.08-.2,52.17,0,78.26,0l-0.39,1.9q-38.74,0-77.48,0c-6.22,0-11.77-1.67-16.36-6A1.69,1.69,0,0,1,786,681Z" transform="translate(-420.89 14.13)"/><path class="cls-24" d="M953.92,622q-0.09,2-.17,3.91a7.3,7.3,0,0,0-4.29-1q-24.45,0-48.9,0a7.14,7.14,0,0,0-4.29.93q-0.11-2.46-.21-4.91c1.11,2.26,2.73,3.09,5.43,3.07,15.73-.17,31.47-0.11,47.2,0C950.78,624,952.61,623.84,953.92,622Z" transform="translate(-420.89 14.13)"/><path class="cls-25" d="M954.65,627.15c7.79-.05,15.57-0.07,23.36-0.18,1.74,0,3.7.64,5.1-1.11,1,0.86.78,2,.9,3.14l-28.33.08Z" transform="translate(-420.89 14.13)"/><path class="cls-22" d="M1006,688H981l-0.81-2,25.79,0A1.44,1.44,0,0,1,1006,688Z" transform="translate(-420.89 14.13)"/><path class="cls-26" d="M942.11,804l-5.3,0,1.31-10.87c1.11-.62,1.33.36,1.75,1Z" transform="translate(-420.89 14.13)"/><path class="cls-27" d="M939.87,794.05l-1.75-1c-0.08-.86-0.35-2.48.41-2.28C939.7,791.1,940.08,792.67,939.87,794.05Z" transform="translate(-420.89 14.13)"/><path class="cls-2" d="M981.93,541c-1.41-5.09-3-10.14-4.16-15.3-0.72-3.31-2.5-5-5.5-6.28-10.24-4.34-20.39-8.87-31.34-11.24-0.81-.17-1.66-0.23-2-1.19,2.14-1.94,4.89-1.84,7.49-2.29,14-2.4,27.81-5.57,39.7-14a5.22,5.22,0,0,0,2.27-2.08c-9.55-1.89-14.73-9.1-19.6-16.45-4.6-7-8-14.58-11.41-22.21-4.53-10.18-11.55-17.25-23.14-19.14-12.05-2-27.27,5.35-33.23,16-2,3.56,1.29,5.08,1.9,7.6,0.35,3.69-1.28,7.09-1.58,10.71-0.71,8.73,1.76,16.6,5.72,24.17a13.84,13.84,0,0,1-.52,6.73A16.6,16.6,0,0,0,906,506c-17.87,3.2-34.46.23-49.3-10.55-10.26-7.45-17-17.75-22-29.12A127,127,0,0,1,824.23,428l463.95,0c6.82,0,6.82,0,6.82,6.65q0,50,0,100c0,6.36,0,6.36-6.6,6.36H981.93Z" transform="translate(-420.89 14.13)"/><path class="cls-2" d="M988.86,568a121.43,121.43,0,0,1-4.66-18h297.45c8.44,0,13.21,3.2,13.3,8.92s-4.8,9.08-13.14,9.08Z" transform="translate(-420.89 14.13)"/><path class="cls-28" d="M1004.06,629l-0.88-3c2.1,1.44,4.5,1,6.79,1q131.6,0,263.21-.05c6.5,0,12.06,1.72,16.81,6.09,0,1.49-1,1.4-2,1.36-5.75-3.67-12.14-3.83-18.71-3.82q-127.8.12-255.6,0C1010.42,630.59,1007,631.36,1004.06,629Z" transform="translate(-420.89 14.13)"/><path class="cls-22" d="M1290,682c-4.72,4.5-10.45,6.05-16.83,6q-123.54,0-247.08,0c-1.43-.9-1.79-1.85-0.1-2.86,2.89-1.13,5.92-.74,8.9-0.74q117.19,0,234.38,0c6.58,0,13-.15,18.72-3.84C1289,680.56,1290,680.49,1290,682Z" transform="translate(-420.89 14.13)"/><path class="cls-16" d="M1025,686l1.12,2c1.77,3.53.55,7.33,1,11a6.19,6.19,0,0,1-1,2.2c-2.77,2.53-4.45,8.31-7.47,7.74-3.29-.62-3.4-6.36-4.77-9.92-2.12-1.23-3-3.35-3.94-5.85-1,2-.34,4.35-2,5.78-0.68-.48-1.3,3.64-2,0q0-5.48,0-11,0-1,0-2c-0.09-2.66.51-5.4-.92-7.9a28.83,28.83,0,0,1,7-5C1016.13,677.6,1021.4,681,1025,686Z" transform="translate(-420.89 14.13)"/><path class="cls-29" d="M1290,682l-1-1a1.87,1.87,0,0,1-.08-1.44c6.61-11.64,2.71-24.26,3.34-36.45,0.17-3.38-3.66-5.53-3.26-9.11l1-1a22,22,0,0,1,6,16.76c-0.31,7.26.77,14.54-.65,21.78A20.57,20.57,0,0,1,1290,682Z" transform="translate(-420.89 14.13)"/><path class="cls-3" d="M771,668.49c0,37.65-.07,75.29.09,112.94,0,4.27-.93,5.7-5.49,5.68q-51.22-.3-102.44,0c-4.26,0-5.25-1.34-5.24-5.39q0.16-113.19,0-226.38c0-4,.94-5.43,5.22-5.41q51.47,0.25,102.94,0c4.08,0,5,1.32,5,5.14C771,592.87,771,630.68,771,668.49Z" transform="translate(-420.89 14.13)"/><path class="cls-4" d="M771,484.77c0,17.16-.1,34.31.08,51.47,0,3.68-1,4.86-4.75,4.85q-52-.2-103.93,0c-3.6,0-4.46-1.24-4.45-4.62q0.15-52,0-103.93c0-3.43.94-4.6,4.49-4.58q52,0.17,103.93,0c3.84,0,4.75,1.25,4.72,4.88C770.91,450.12,771,467.45,771,484.77Z" transform="translate(-420.89 14.13)"/><path class="cls-2" d="M805.16,428c1.52,9.81,2.14,19.73,4.48,29.46,5.45,22.62,16.14,42.37,31.14,60,7.37,8.69,16.08,15.87,24.48,23.42-27,0-54,0-81,.17-3.22,0-4.34-.93-4.33-4.25q0.14-52.25,0-104.5c0-3.72,1.47-4.45,4.73-4.37C791.49,428.12,798.32,428,805.16,428Z" transform="translate(-420.89 14.13)"/><path class="cls-4" d="M807.58,606c-7.66,0-15.32-.13-23,0.06-3.3.08-4.73-.71-4.69-4.39,0.18-15.81.15-31.63,0-47.44,0-3.25,1-4.32,4.26-4.3q23.72,0.21,47.44,0c3.1,0,4.46.69,4.43,4.13-0.15,16-.13,32,0,47.94,0,3-.94,4.1-4,4C823.89,605.89,815.73,606,807.58,606Z" transform="translate(-420.89 14.13)"/><path class="cls-2" d="M887.15,575.65A146.16,146.16,0,0,1,890.93,596c-11.82,0-23.63.05-35.45,0a9.86,9.86,0,0,1-9.08-5c-1.93-3.24-1.34-6,.56-8.8C849.13,579,852.36,578,856,578c8.82,0,17.64,0,26.46,0C884.37,578,886.7,578.63,887.15,575.65Z" transform="translate(-420.89 14.13)"/><path class="cls-2" d="M877.05,548.92c4.56,1.46,7.08,4.31,7.26,9.36,0.11,3.26,1,6.49,1.57,9.73-10.13,0-20.27.06-30.4,0-3.82,0-6.95-1.41-9.08-5-1.92-3.22-1.35-6,.53-8.79,2-3,5.07-4.13,8.54-4.17,5.65-.06,11.3,0,16.95,0C874,550,875.8,550.51,877.05,548.92Z" transform="translate(-420.89 14.13)"/><path class="cls-30" d="M786,681l-1,1a22,22,0,0,1-6-16.76c0.3-7.26-.77-14.54.64-21.79A20.6,20.6,0,0,1,785,633l1,1c-4,4.26-5.44,9.21-5.05,15a127.68,127.68,0,0,1,0,17C780.53,671.83,782,676.78,786,681Z" transform="translate(-420.89 14.13)"/><path class="cls-18" d="M1289,634c4,4.25,5.44,9.2,5.05,15a128.91,128.91,0,0,0,0,16.94c0.38,5.83-1.09,10.79-5.05,15-4.25,4-9.21,5.1-15,5.09q-124.52-.2-249-0.08c-4.92-3.7-10.11-7.14-12.93-12.94,1.37-1.31.57-2.7,0.26-4.16-2.78-13.29-5.5-26.6-8.24-39.9q136.46,0,272.92-.1C1282,628.91,1285.46,631.25,1289,634Z" transform="translate(-420.89 14.13)"/><path class="cls-31" d="M906,506c-3-1.84-2.61-4.3-1.55-7.14a24.08,24.08,0,0,0,1.78-8.52c-0.73-7,1.59-13.67,1.51-20.62-0.07-6-.77-11.48-5.7-15.56-4.38-2.18-3.84-4.89-1.61-8.66,10.21-17.2,37.45-22.2,50.77-7.45a45.77,45.77,0,0,1,7.89,12.54c4.2,9.6,8.63,19.09,15.29,27.32,4.38,5.41,9.28,10,18.19,9.32-16.06,13.85-34.62,17.4-53.61,19.8-8-2-16.25,0-24.3-1.73C911.86,504.68,908.75,504.37,906,506Z" transform="translate(-420.89 14.13)"/><path class="cls-32" d="M974,596c-4.59.46-9.33-1-13.81,1l5.63-26,1-.06Z" transform="translate(-420.89 14.13)"/><path class="cls-33" d="M1008,698.94c-0.07-2.79-.05-5.57,1.76-8.76l4.16,8.83Z" transform="translate(-420.89 14.13)"/><path class="cls-20" d="M902,454.13c4.88,1.33,6.84,4.85,7,9.58,0.26,9-.16,17.92-2.78,26.61-4.54-7.73-6.92-15.94-6.3-25C900.17,461.42,901.8,457.93,902,454.13Z" transform="translate(-420.89 14.13)"/></svg>