<svg id="Layer_1" data-name="Layer 1" xmlns="http://www.w3.org/2000/svg" viewBox="0 0 596.19 583.19"><defs><style>.cls-1{fill:#fefefe;}.cls-2{fill:#f0f0f0;}.cls-3{fill:#81e1d7;}.cls-4{fill:#34aaaa;}.cls-5{fill:#004970;}.cls-6{fill:#82e1d7;}.cls-7{fill:#014970;}.cls-8{fill:#01384f;}.cls-9{fill:#d9d7dd;}.cls-10{fill:#f9cab5;}.cls-11{fill:#014a70;}.cls-12{fill:#b1def7;}.cls-13{fill:#f8cab5;}.cls-14{fill:#20140e;}.cls-15{fill:#11100f;}.cls-16{fill:#f6f5f5;}.cls-17{fill:#f5c6b2;}.cls-18{fill:#010101;}.cls-19{fill:#030304;}.cls-20{fill:#020203;}.cls-21{fill:#030203;}.cls-22{fill:#5b88a0;}.cls-23{fill:#eff2f2;}.cls-24{fill:#ededee;}.cls-25{fill:#013956;}.cls-26{fill:#e2e2e3;}.cls-27{fill:#ebeced;}.cls-28{fill:#dfe2e5;}.cls-29{fill:#fdfdfd;}</style></defs><title>productive2</title><path class="cls-1" d="M867.5,275.5q147,0,294-.1c3.42,0,4.1.67,4.09,4.1q-0.16,287.5,0,575c0,3.42-.67,4.1-4.09,4.09q-294-.16-588,0c-3.42,0-4.1-.67-4.09-4.09q0.16-287.5,0-575c0-3.42.67-4.1,4.09-4.1Q720.5,275.58,867.5,275.5Z" transform="translate(-569.41 -275.4)"/><path class="cls-2" d="M1094.85,739.48c15.09-.33,13.83,1.77,13.66,13.95-0.08,5.66,0,11.33,0,17,0,6.43-1.59,8-7.83,8.09H629.93c-9,0-10.42-1.42-10.42-10.33,0-6.66-.08-13.33,0-20s2-8.64,8.63-8.68c5.33,0,10.66,0,16,0,2.47,1.79,1.69,4.49,1.84,6.88,0.34,5.59,1,6.52,6.41,6.59,10.48,0.12,21,0,31.45.06,4.37,0,6.28-2.1,6.92-6.16,0.4-2.51-.48-5.45,2.08-7.37l42.67,0c-0.49,3.24-3.47,3.67-5.68,4.56-3.5,1.4-6.29,3.28-7.82,6.79a31.09,31.09,0,0,0-3.37,2.9c-2.3,2.79-2.24,6.1.15,8.46a6.69,6.69,0,0,0,9,.3c2.38-2.18,2.57-5.69.53-8.53-1-1.42-3.11-2.06-3.13-4.23,0.64-1.82,2.26-2.3,3.86-2.8,7.93-2.47,15.76-5.21,23.65-7.8a13.94,13.94,0,0,1,8.8-.22c8.71,2.76,17.28,5.91,26,8.5a4.82,4.82,0,0,1,3.15,2.25c0.29,1.74-1.08,2.65-1.94,3.82-2.64,3.62-2.5,6.82.39,9.2a5.91,5.91,0,0,0,8.44-.75c2.5-2.87,2-6.76-1.23-9.6a11.88,11.88,0,0,0-1.68-1.07,37.17,37.17,0,0,0-13.11-9c-1.26-.49-3.88-1.69-0.91-3.73a141,141,0,0,1,30.09.13c3.12,3.68.47,6.93-.76,10.29a39.7,39.7,0,0,0-1.4,6.3c-1,6.49-.12,8.25,6.43,7.54,11-1.21,21.76,1.21,32.64,1.54,5.31,0.16,10.61-.53,15.92,0,1,0.1,2.15,0,2.33-1.31,0.12-.89-0.68-1.44-1.4-1.88-2.69-1.65-5.66-2.79-8.29-4.55-5.11-3.15-10-6.65-14.76-10.28-2.87-2.18-3.27-4.84-1.66-7.93,0.69-1.31,1.75-1.37,3-.75,14.29,0.79,28.58.07,42.86,0.21,2.92,0,4.17-1.53,4.21-4.35,0-1.83.05-3.66,0.06-5.49,0.09-26.77-.17-53.54.12-80.31,0.3-6-1.21-12.1,1.1-18a1.15,1.15,0,0,1,1.66-.06c1.22,2.18.68,4.56,0.68,6.85,0,40.73,0,81.45,0,121,0.77-5.25-1.29-11.77,1-18.07l167.61,0c2.57,1.94,1.61,4.82,1.9,7.34,0.58,5,1.52,6.06,6.49,6.15,5.79,0.1,11.59,0,17.39,0,3.52,0,5-1.65,5.12-5.17C1093.15,745,1092,741.76,1094.85,739.48Z" transform="translate(-569.41 -275.4)"/><path class="cls-3" d="M750.47,667.55c-4.21-3.15-9.16-5.32-12.76-9.29-8.12-9-9.31-19-4.38-29.85a76.28,76.28,0,0,0,41.77-1.71c3.63-1.15,7.11-2.88,11-3,16.44,0.09,32.83,1.76,49.28,1.23,3-.1,6-0.15,8.71,1.5,0.87,0.49,1.48,1.39,2.38,1.79,11.75,5.22,13.78,17.6,11.49,28.42-5.15,24.42-9.3,49-14,73.55-0.41,2.12-.6,4.3-2,6.12a3.33,3.33,0,0,1-1.57.82c-9.13,1.81-18.34.55-27.51,0.78-9.74,0-10.15-.44-8.55-9.87,2.93-17.25,6-34.47,8.77-51.74,1-5.93.61-6.35-5.36-6.34-4.65,0-9.33-.35-14,0.55-12.37-.88-24.76-0.26-37.14-0.53C754.43,670,751.63,670.68,750.47,667.55Z" transform="translate(-569.41 -275.4)"/><path class="cls-4" d="M785.42,624.46c-9.9,3.87-19.86,7-30.73,7.29a97.42,97.42,0,0,1-18.61-1.09c-1.49-.25-2.54-0.64-2.76-2.26,4.62-24.09,11.16-47.47,26.05-67.58,6.09-8.22,13.4-15.14,23-19.23,4.09,5.8,9.34,10.57,14,15.85,2.07,6.35.67,13.56,5.3,19.34,2.06,2.57,3.35,2.67,5.91.84,7.26-5.17,14.82-9.92,22-15.13,3.26-2.35,5.54-2.27,7.56,1.23,1.88,0.13,2.92,1.43,3.83,2.84,1.71,2.66,3.45,5.22,6.54,6.57,1.43,0.62,2,2.15,2.47,3.59,1.38,4.61,3.55,8.93,4.88,13.56a3.49,3.49,0,0,1-1.81,3.08c-3.22,1.49-6.5,2.87-9.75,4.3-1.11.39-2.05,1.13-3.11,1.63-4.85,2.08-9.75,4-14.45,6.44-5.24,2.16-10.36,4.57-15.48,7-5.55,2.62-11.22,3.36-16.66-.16-2.41-1.56-3.05-.63-3.77,1.57C788.72,617.71,788.64,621.77,785.42,624.46Z" transform="translate(-569.41 -275.4)"/><path class="cls-4" d="M692.85,739.48c-0.31,3.3-.68,6.59-0.92,9.89s-2,5.06-5.46,5q-18.2,0-36.4,0c-3.71,0-5.45-1.79-5.5-5.49,0-3.15-.27-6.3-0.42-9.45a10.05,10.05,0,0,1-.6-2.34c-0.15-12.39-1-24.74-2-37.09-0.69-9,.58-9.8,10.89-9.42,3.43-.49,6.93-0.33,10.32-1.14a18.29,18.29,0,0,1,6.71,0c5,1.11,10.06.14,15,1.14,1.66,0,3.32-.15,5-0.1a6,6,0,0,1,5.93,6.83c-1.43,9.1-1.64,18.3-1.76,27.45C693.61,729.73,691.5,734.52,692.85,739.48Z" transform="translate(-569.41 -275.4)"/><path class="cls-5" d="M977.57,435.38c13.32,0,26.64.09,40-.16,3.6-.07,4.35,1.07,4.37,4.46q0.5,91.9,1.3,183.79c0,3.82-.81,5-4.84,5-41.29.13-82.57,0.49-123.86,0.79-2-2.78-1.56-5.68-.46-8.63a3.68,3.68,0,0,1,1.5-1.1c12.28-1.07,24.56-.77,36.84-0.17a55.71,55.71,0,0,0,14.29,1.76c21.61-.68,43.18,1.48,64.79.92,6.3-.16,6.83-0.65,6-7a32.86,32.86,0,0,1-.46-5c0.63-21.61-1.27-43.18-1-64.79,0.11-9.11-1.38-18.21-.94-27.36,0.13-2.65-.11-5.32.84-7.88,0.3-.8.21-0.73-0.11,0a1.7,1.7,0,0,1-.65.73c-2.84-1.76-2.2-4.66-2.22-7.2-0.09-16.66,0-33.32-.05-50,0-11.1.78-10.39-10.18-10.42-6.16,0-12.33,0-18.49,0-2.32,0-4.7.18-6.77-1.24C975.91,439.65,975.73,437.5,977.57,435.38Z" transform="translate(-569.41 -275.4)"/><path class="cls-6" d="M684.53,690.61a29.3,29.3,0,0,1-15.05,0c-1.5-2-.83-4.19-0.34-6.25,2.89-12.2,3.71-24.66,4.78-37.09a37.32,37.32,0,0,0-.46-8.46c-0.42-3,.23-5.64,3-7.36a56,56,0,0,1,8.35-12.89c0.72-.81,1.46-2.15,2.77-1.67s0.81,2,.85,3.09c0.4,11.46-.83,22.8-2.66,34.1-0.18,1.13-.16,2.29-0.23,3.43l1.34,1.22c1.57-2,3-4.16,4.73-6.09a69.89,69.89,0,0,1,19.19-14.83c1.21-.66,2.7-2.13,4-0.89,1.15,1.07-.29,2.42-0.76,3.56a181.25,181.25,0,0,1-28.86,47.8C684.7,688.94,683.28,689.41,684.53,690.61Z" transform="translate(-569.41 -275.4)"/><path class="cls-7" d="M876.68,540.56c-0.11-33-.13-66-0.42-99,0-4.23.74-5.68,5.33-5.57,11.65,0.27,23.32-.28,35-0.14,2.93,0,4.07-1.14,4.86-3.46,2.13,3.47.8,6.56-1,9.6-2.95,1.88-6.28,2-9.61,2-6.64.08-13.28,0-19.92,0.05-5.14.08-5.58,0.6-5.78,5.78-0.68,17.6,1,35.16,1,52.75,0,4.65.08,9.3-.1,13.94,0.3,19.74,0,39.48.13,59.22,0,1.49,0,3,0,4.48,0,7.47.14,7.58,7.41,7.62,8.13,0,16.26-.12,24.39.09,2.11,0.06,4.87-.61,5.72,2.57A6.13,6.13,0,0,1,919,592q-19.07.19-38.14,0a7.77,7.77,0,0,1-3.82-.88,1.18,1.18,0,0,1-.54-1.65h0c1.15-3.22.5-6.54,0.48-9.8C876.87,566.66,877.46,553.61,876.68,540.56Z" transform="translate(-569.41 -275.4)"/><path d="M786.58,533.62l-14.3-5.28c7.83-7,9.78-16.44,12.93-25.41,5.16-14.67,21.37-19.87,34.66-11.54a113.33,113.33,0,0,1,10,7.3c3.45,2.73,4.65,6,1.47,9.8-2.61,1.47-2.5-1.75-4-2.41-3.06,8-11,8.4-17.29,11.37-1.71.81-2.26-.81-2.9-1.94-1.59-2.8-3.73-4.38-6.92-2.6-2.64,1.48-2.79,4.32-.06,7.64a5.27,5.27,0,0,1,.84,5.94c-0.43,1.08-.76,2.2-1.12,3.3C797,538.69,794.47,539.43,786.58,533.62Z" transform="translate(-569.41 -275.4)"/><path class="cls-4" d="M1094.85,739.48c-0.17,3.49-.46,7-0.48,10.46,0,3.12-1.35,4.58-4.5,4.56-7.49,0-15-.06-22.46,0-2.9,0-4.31-1.32-4.51-4.11-0.26-3.64-.5-7.29-0.74-10.93-0.22-7-.23-14-0.72-21-0.33-4.71,1.11-6.91,6-5.89a40.19,40.19,0,0,0,7.36-1.06,11.91,11.91,0,0,1,4.72,0c3.62,0.79,7.34.47,11,1.06,5.54,0.1,6.85,1.66,5.42,6.87-0.81,3-.24,5.91-0.44,8.85C1095.26,732,1095.07,735.76,1094.85,739.48Z" transform="translate(-569.41 -275.4)"/><path class="cls-8" d="M920.29,441.9l1.14-9.47c1.48-5.71,7.57-5.28,10.64-8.11s4.05-8.73,9.42-9.61a45,45,0,0,1,15.38-.08c3.23,0.59,6.19,2.62,7,5.77s2.51,4.29,5.54,5c5.1,1.15,7.85,4.69,8.13,10q0,3.13,0,6.27c1.33,4.31.71,5.7-3.24,6.2a75.37,75.37,0,0,1-11.91.17c-12.31.12-24.61,0.22-36.92,0C920.1,447.91,919.2,446.63,920.29,441.9Z" transform="translate(-569.41 -275.4)"/><path class="cls-9" d="M721.48,750.29c0.61-3.89,3.17-5.6,6.72-6.78a18.84,18.84,0,0,0,7.32-4c5.43-.78,9.71-4.2,14.53-6.37,1.61-.72,1.47-2.45,1.47-4,0-14.67-.06-29.33,0-44,0-3-1.2-3.66-3.88-3.62-7,.12-14,0.07-21,0-1.77,0-3.71.55-5.2-1,1.68-1.81,3.93-1.65,6.07-1.66q29-.1,58,0a10.88,10.88,0,0,1,5.35.95c-0.2,2.6-.37,2.87-3.63,3-5.3.28-10.62,0.05-15.93,0.12-5.9.08-6.3,0.42-6.32,6.16,0,12.11.11,24.23-.08,36.34-0.07,4.43,1.62,7,5.58,8.92,3.08,1.46,6.73,2.07,9,5.09a12.78,12.78,0,0,0,2.41,1.64c5.25,2,10.17,4.52,13.63,9.2-1.67,1.58-3.35,1.57-5,0-7.11-3.59-15.12-4.68-22.31-7.93s-14.16-3.07-21.49,0c-6.08,2.54-12.55,4.13-18.87,6.09a4,4,0,0,0-2.3,1.75C724.17,751.67,722.82,751.68,721.48,750.29Z" transform="translate(-569.41 -275.4)"/><path class="cls-6" d="M662.52,690.61a13.64,13.64,0,0,1-10,0c0.17-3.41-2.5-5.39-4.2-7.7-7.74-10.54-14.14-21.88-20.63-33.18-0.42-.73-1.42-1.56-0.44-3,8.51,4.1,15,10.83,21.91,17.27a160.9,160.9,0,0,1-4.34-48.92c6.44,13.42,10.44,26.47,14.81,39.37,2.41,1.87,3.71,4.35,3.09,7.36-1.52,7.48.28,14.81,0.78,22.19C663.61,686.3,664.19,688.59,662.52,690.61Z" transform="translate(-569.41 -275.4)"/><path class="cls-10" d="M786.58,533.62c3.44,0.29,7,4,9.64,2.25,2.15-1.46,2.28-5.93,3.28-9.08,0.6-1.88,2.35-3.63-.51-5.51-2.42-1.59-3-4.24-1.67-7.08,1.21-2.55,3.24-3.93,6-3.58a5.7,5.7,0,0,1,5.37,5.05,10.46,10.46,0,0,0,.5,1.49c3.27-3.26,7.78-3.17,11.39-5.18s5.94-5,6.25-9.24c3.2,0.82,1.31,5.23,4.57,5.76-3.05,5.62-4.93,11.53-4.27,18,0.1,1,.72,2.23-0.32,2.62-3.16,1.2-2.71,4.11-3.45,6.48-3.66,4.12-8,5.67-13.31,3.45-1.83-.76-3.78-1.51-5.48.37s-3.36,4-5,6c-2.76,3.53-5.17,7.18-3.18,12-6.38-3.77-11.4-8.75-14-15.86C783.46,538.77,786.14,536.79,786.58,533.62Z" transform="translate(-569.41 -275.4)"/><path class="cls-11" d="M791.51,680.67l-70-.1c-3.41-1.66-5-4.31-4-8s4.19-4.83,7.7-4.86c8.41-.09,16.83-0.08,25.24-0.12,1.35,1.47,3.13.78,4.7,0.79,9.47,0.06,18.95.07,28.42,0a32,32,0,0,1,10.78,1.23c3.22,1.55,3.25,4.31,2.45,7.13C796.09,679.18,794.64,681.15,791.51,680.67Z" transform="translate(-569.41 -275.4)"/><path class="cls-12" d="M662.52,690.61c-0.62-5.68-1.31-11.36-1.82-17-0.24-2.61-.71-5.42,0-7.85a15.16,15.16,0,0,0-1.08-11.28c1.91-.12,1.7-1.55,1.93-2.88,0.79-4.72,1.31-9.53,2.66-14.1,2.18-7.42,3.75-15.11,8.1-22.39,0.82,4.87,1.59,9.3,2.3,13.74a3.07,3.07,0,0,0,1.92,2.67c-2.58,3.75-.92,7.82-1.08,11.8-0.51,13.14-1.42,26.26-4.33,39.14-0.61,2.72-1.07,5.48-1.6,8.22Z" transform="translate(-569.41 -275.4)"/><path class="cls-6" d="M1090.53,712.62a15.74,15.74,0,0,1-11.05,0c-1.67-2.07-1.16-4.39-.71-6.67A106.64,106.64,0,0,0,1081,682.2c-0.08-3.11-.23-6.39,2.45-8.8,1.57-2.09,3.18-4.15,4.68-6.28,0.65-.93,1-2.54,2.31-2.22,1.74,0.44,1,2.25,1,3.43-0.22,5.61.79,11.27-.85,16.84-0.4,1.37-.06,3-0.06,5.47,5.05-4.45,9-9.23,14.7-11.58,1.16-.47,2.17-2.23,3.44-1.21,1.51,1.23-.08,2.82-0.58,4a112.55,112.55,0,0,1-15,25.59C1091.93,708.93,1089.86,710.12,1090.53,712.62Z" transform="translate(-569.41 -275.4)"/><path class="cls-13" d="M876.52,589.5a1.77,1.77,0,0,1-.09.8,4.36,4.36,0,0,1-4,1.65c-6-.27-12.18,1.48-18-1.3-3-4-3.77-9-5.64-13.53-0.77-1.85-1.19-3.42-3.82-3.75s-3.12-3.46-4.62-5.29c-1.14-1.38-2.12-2.89-3.18-4.33a3.44,3.44,0,0,0,.42-0.26c10.88-9.09,16.84-7.69,23,5.31,3,6.42,8.56,11.51,9.32,19.27C870.2,590.77,874.31,588.7,876.52,589.5Z" transform="translate(-569.41 -275.4)"/><path class="cls-6" d="M1074.52,712.61a6.88,6.88,0,0,1-7,0c0.67-2.49-1.47-3.62-2.59-5.21a198.79,198.79,0,0,1-14.05-23.29c6.34,2.65,10.11,6.49,14.93,10.62-2.07-10.69-3.66-20.41-3.12-31.88,5.49,9.1,6.68,18.46,10.88,26.51a3.05,3.05,0,0,1,1.58,1.84C1076.31,698.38,1077.29,705.55,1074.52,712.61Z" transform="translate(-569.41 -275.4)"/><path class="cls-14" d="M894.39,620.58q0.05,4.34.11,8.68,0,55.12.05,110.24v26l-2.22,0V629.38c-2-2.78-1.12-6-1.27-9,0.26-4.58-1.1-9.3,1.15-13.71,2.75-.55,2.45,1.71,2.52,3.09C894.93,613.37,895.28,617,894.39,620.58Z" transform="translate(-569.41 -275.4)"/><path class="cls-12" d="M1074.52,712.61c-0.46-7.74.87-15.55-1-23.23,1.73-6.15,2.32-12.59,4.77-18.56,0.74-1.81,1.47-3.62,2.52-6.23l2.68,8.81c-1.23,13.08-1.36,26.27-4,39.21h-5Z" transform="translate(-569.41 -275.4)"/><path class="cls-15" d="M804.54,539.43c0.48-1.7,1-4.36,3.29-2.72,5.68,4.06,10.52,1.77,15.5-1.1,0.22,9.29.22,9.29-8.75,6.69C811.24,541.34,807.89,540.39,804.54,539.43Z" transform="translate(-569.41 -275.4)"/><path class="cls-13" d="M876.68,540.56c1,15.95.5,31.91,0.62,47.87a2.7,2.7,0,0,1-.81,1.08Q876.59,565,876.68,540.56Z" transform="translate(-569.41 -275.4)"/><path class="cls-1" d="M791.51,680.67c5.39-3.3,5.86-5.14,2.86-11.14,6.42-2.31,13-.72,19.54-0.84,2.45,0,1.73,2.61,1.5,4-2.35,14.23-4.84,28.44-7.3,42.65-1.06,6.13-2,12.28-3.26,18.38-0.42,2.08.19,2.76,2.13,2.76s3.65,0,5.47.07c0.8,1.34,1.32,2.59-1,2.93l-32,0c-15.69-4.55-16-4.94-16-20.86,0-10.32.34-20.66-.14-31-0.25-5.34,1.6-6.53,6.46-6.18,5.63,0.4,11.31.13,17,.07C788.39,681.58,790.15,682.08,791.51,680.67Z" transform="translate(-569.41 -275.4)"/><path class="cls-1" d="M891.41,647.56c0,29.08,0,58.17.14,87.25,0,3.75-1.11,4.83-4.82,4.77-13.62-.2-27.25-0.06-40.88-0.11-1.66,0-3.87.8-4.36-2q-0.52-.35-0.29-0.58a0.58,0.58,0,0,1,.41-0.2l-0.12-.33c2.49-1.89,5.43-1.41,8.18-1.27,4,0.21,5.54-1.6,6.21-5.35,4-22.56,8.37-45.05,12.58-67.57,0.78-4.14.55-8.71,3.76-12.14,5-1.68,10.31-2.18,15.47-3.27A3.86,3.86,0,0,1,891.41,647.56Z" transform="translate(-569.41 -275.4)"/><path class="cls-16" d="M891.41,647.56c-6.35.6-12.39,3.17-18.87,2.95-1-.78-1.13-2-1.27-3.11-1.27-10.14-6.66-16.66-16.78-19-3-1.21-6.28-.26-9.38-0.87l-0.72-.13c-9.41-1.87-18.92-.54-28.38-1-9.3-.43-18.58-1.39-27.9-1a2.84,2.84,0,0,1-2.68-1l4.93-15.77c7.44,7.23,14.91,5.8,22.71,1.34,3.85-2.21,8.14-3.65,12.23-5.44,11.43,0.76,22.86.15,34.3,0.33,4.15,0.07,8.3-.09,12.45.06,5.57,0.2,6.71,1.33,7,6.78,0.16,3.15,0,6.31.07,9.46,0.09,6.26.27,6.42,6.36,6.73,2.12,0.11,4.37-.19,6.05,1.62Z" transform="translate(-569.41 -275.4)"/><path class="cls-7" d="M891.5,629.56c-3.64-.1-7.28-0.35-10.91-0.25-2.4.07-3.2-.74-3.13-3.13,0.14-4.48-.31-9,0.09-13.45,0.41-4.65-.83-6.24-5.85-6.1-13.95.39-27.91,0.17-41.87,0.09-1.68,0-4.29,1.22-4.54-2.13,5-2.23,9.78-5,15.2-6.23,3.45-1.42,7.1-1.16,10.71-1.28,8.71-.3,17.45.77,26.13-0.66,15.77-2.34,31.59-1.7,47.41-.74,10.31,0.58,20.63,0,30.95.28,3.38,0.09,6.34.8,7.07,4.83,0.79,4.31-.92,6.69-5.3,7.18a53.67,53.67,0,0,1-6,.14c-16.32,0-32.64,0-49,0-5.82,0-6.12.4-6.41,6.23-0.11,2.16,0,4.37-1.58,6.14l-0.12.09c-1.5-3.09-.38-6.38-0.76-9.55-0.18-1.49.74-3.35-1.33-4.26-3.26,1.33-7.42,1.43-6.57,7.07,0.47,3.15.86,5.38,4.5,5.55a3,3,0,0,1,2.07,1.18q0,4.41,0,8.81A1.28,1.28,0,0,0,891.5,629.56Z" transform="translate(-569.41 -275.4)"/><path class="cls-17" d="M841.62,736.72a2.65,2.65,0,0,0-.12.78c-2.28,3.59-2.25,6.34,2,8.77,4.53,2.6,8.64,5.94,12.93,9-1.37,3.1-4.19,3.94-7,3.41a32.4,32.4,0,0,0-13.63.1,8.7,8.7,0,0,1-4.88-.58,172.26,172.26,0,0,1-22.24-9.57c2-2.69,1.91-6,2.81-9.09,1.07-.73,1-1.85,1-2.94Z" transform="translate(-569.41 -275.4)"/><path class="cls-18" d="M808.68,748.59c1.94-.67,3.55.31,5.22,1L829,756.08c7.53,3.22,15.48-1.45,23.13,1.18,1.08,0.37,2.86-1.31,4.31-2,3.23,1.66,6.45,3.38,9.71,5,1.64,0.8,2.87,1.77,2.4,3.78s-2.36,2-3.64,1.88c-5.61-.52-11.27.3-16.78-0.27-9.17-1-18.41-.93-27.59-2.35-2.89-.44-7,0.8-10.68.52-2.5-.2-3-1.25-2.89-3.44C807.14,756.34,807.26,752.37,808.68,748.59Z" transform="translate(-569.41 -275.4)"/><path class="cls-19" d="M721.48,750.29h4c3.91,1.69,6.35,4.48,5.57,8.91a7.17,7.17,0,0,1-6.71,6.37c-4.22.42-7.22-1.49-8.36-5.52C714.64,755.19,717.13,752.14,721.48,750.29Z" transform="translate(-569.41 -275.4)"/><path class="cls-20" d="M790.49,750.39l5,0c4.32,2.12,6.33,5.52,4.82,10.19-1.21,3.74-4.22,5.42-8.2,5a7,7,0,0,1-6.46-5.39C784.43,755.68,786.49,752.49,790.49,750.39Z" transform="translate(-569.41 -275.4)"/><path class="cls-4" d="M854.52,627.4c11.94,2.11,17.37,9.08,18,23.11-2.56,7.93-3.35,16.22-5,24.34q-5.17,25.61-9.81,51.32c-0.61,3.33,0,8.31-2.11,9.61-2.84,1.71-7.36.63-11.16,0.72-1,0-2-.07-3-0.1,4.26-22.52,8.79-45,12.63-67.57,1.21-7.13,3.83-14.06,3.43-21.49s-3.22-13.41-10.19-16.91c-1.29-.65-2.9-1.07-3-3l0.07-.05A28,28,0,0,1,854.52,627.4Z" transform="translate(-569.41 -275.4)"/><path class="cls-21" d="M924.63,596.85c-9.6-.07-19.19,0-28.78-0.25-6.16-.18-12.23.83-18.35,0.94a112.33,112.33,0,0,1-22.85,0c-2.39-.95-3.68-2.34-2-4.94,1.06-.2,1.36-1.14,1.84-1.9l22-.35c15.61,0.28,31.23.64,46.84,0,10.16-16.23,20.43-32.38,30.39-48.74,1.16-1.47,1.81-3.77,4.29-3.31,1.37,0.25,1.38,1.61,1.27,2.8-5.69,10.31-12.24,20.09-18.55,30-1.85,3.06-3.7,6.12-5.51,9.21-2.69,4.82-6.66,9-7.7,14.66A2.12,2.12,0,0,1,924.63,596.85Z" transform="translate(-569.41 -275.4)"/><path class="cls-22" d="M854.48,596.7c7.63,1.41,15.37-.22,23,0.83-0.81,1.14-2,1-3.17,1l-33.84-.13,2-1.79C846.45,596.93,850.48,595.42,854.48,596.7Z" transform="translate(-569.41 -275.4)"/><path class="cls-23" d="M854.48,596.7a17.78,17.78,0,0,1-12-.13l10.18-4A3.94,3.94,0,0,0,854.48,596.7Z" transform="translate(-569.41 -275.4)"/><path class="cls-24" d="M939.85,570.52l18.47-29.33c11-.54,22-0.06,32.94-0.22a40.42,40.42,0,0,0,5.48-.23,3,3,0,0,0,2.9-3.37c0-2.08-1.23-2.93-3.12-3.16a32.67,32.67,0,0,0-4-.17H942.1a31.69,31.69,0,0,0-4,.18c-2,.26-2.85,1.46-2.87,3.4s1,3.05,3,3.21c3.32,0.27,6.66,0,10,.16,2.12,0.08,4.38-.27,6.11,1.49q-14.21,22.94-28.41,45.89a3.24,3.24,0,0,1-2.67,1.92c-11.13-.89-22.27-0.33-33.4-0.29-3.92,0-5.45-.68-5.41-5.08,0.22-22.81.08-45.62,0.07-68.43,8.8-9.49,18.86-17.63,28.44-26.26q17.53-15.8,35.15-31.51c4.69-4.16,9-8.8,14.37-12.16,3.63-.16,7.28-0.67,10.88-0.39,3.76,0.3,4.57-1.38,4.21-4.53,11-.07,21.95,0,32.91-0.28,3.26-.08,4.15.84,4.15,4.11,0,20,.15,39.9.29,59.85,0,1.81.27,3.62,0.42,5.43,0.85,0.79.66,1.85,0.63,2.82-0.37,13.49.63,27,.55,40.45-0.12,20,.77,40,0.52,59.94-0.09,6.84-1,8-7.65,8-22.48.23-45-.82-67.44-0.54a69.8,69.8,0,0,1-9.42-.77l-38-.19c0-3.16.16-6.34-.16-9.47-0.38-3.67,1.18-4.35,4.52-4.33,19.29,0.15,38.59,0,57.88.13,3.22,0,4.76-.49,4.68-4.26-0.07-3.5-.63-5-4.63-4.89-9,.31-18,0.13-26.94.07-1.76,0-3.7.6-5.23-.9,1-.29,2-0.87,2-1.94,0-6.46,4.82-10.48,7.79-15.43,2.51-1.67,5.36-1.55,8.2-1.55H991c1.66,0,3.33,0,5-.1,2-.17,3.57-0.79,3.65-3.19,0.09-2.73-1.66-3.45-3.85-3.45-9,0-18-.59-26.92.39-8.3.91-16.61,0.42-24.92,0.4A5.19,5.19,0,0,1,939.85,570.52Z" transform="translate(-569.41 -275.4)"/><path class="cls-25" d="M932.53,620.68l76.39-.56c6.72-.05,6.73-0.06,6.69-7q-0.24-48.94-.48-97.87c0-1.49.14-3,.21-4.47l0.58-6a8.63,8.63,0,0,1,.53,1.73c-0.66,16.8,1.2,33.55,1.07,50.34-0.13,18.12,1.62,36.2,1,54.34a47.16,47.16,0,0,0,.94,7.87c0.49,3.54-1.07,4.48-4.51,4.53-17,.23-33.9-0.51-50.84-1.08-9.78-.33-19.62.8-29.34-1A15.54,15.54,0,0,1,932.53,620.68Z" transform="translate(-569.41 -275.4)"/><path class="cls-26" d="M962.5,446.57c-8.37,9.75-18.82,17.28-28,26.18-8,7.73-16.61,14.75-24.89,22.16-7.65,6.85-15.19,13.82-22.83,20.69a7.25,7.25,0,0,1-2.25.91c-0.29-23.75-.54-47.49-0.92-71.24-0.05-3.1,1.67-3,3.79-3,11-.09,21.93-0.24,32.89-0.37-0.48,3.89,1.33,4.76,5,4.69C937.71,446.37,950.11,446.55,962.5,446.57Z" transform="translate(-569.41 -275.4)"/><path class="cls-27" d="M948.85,425c-2.31,0-4.62,0-6.93,0-1.71,0-3-.87-3.08-2.56-0.09-2,1.23-3,3.16-3,4.79,0,9.57-.05,14.36,0a2.6,2.6,0,0,1,2.87,2.72c0,1.76-1.31,2.64-3,2.71-2.47.11-4.95,0-7.42,0V425Z" transform="translate(-569.41 -275.4)"/><path class="cls-28" d="M892.31,620.58c-1.49.07-3,.07-4.46,0.22-2.34.24-3.39-.67-3.16-3.07a34.67,34.67,0,0,0,0-3.47c0-7.62,0-7.62,7.62-7.48Q892.31,613.68,892.31,620.58Z" transform="translate(-569.41 -275.4)"/><path class="cls-3" d="M854.52,627.4l-10.06,0A13.25,13.25,0,0,1,854.52,627.4Z" transform="translate(-569.41 -275.4)"/><path class="cls-1" d="M954.35,542.49c-5.5,0-11-.19-16.49.08-3.67.18-4.62-1.33-4.42-4.67,0.18-2.87-.47-5.53,4.12-5.48,19.82,0.2,39.64.12,59.46,0,3.15,0,4.67,1.11,4.49,4.37-0.14,2.64.48,5.65-3.68,5.64h-37a2.75,2.75,0,0,1-2.54-1.28c0-.89,1.06-2,0.06-2.62s-1.56.44-2.08,1.22S955,541.59,954.35,542.49Z" transform="translate(-569.41 -275.4)"/><path class="cls-1" d="M939.85,570.52c18.78-.34,37.56-0.59,56.34-1.1,4.06-.11,5.46,1,5.47,5.23s-1.55,4.94-5.27,4.91c-20.65-.15-41.31-0.09-62-0.09Z" transform="translate(-569.41 -275.4)"/><path class="cls-29" d="M967,495.5c9.83,0,19.66.13,29.49-.07,3.55-.07,4.13,1.51,4.08,4.52,0,2.85-.28,4.66-4,4.63-19.83-.15-39.66-0.11-59.48,0-3.48,0-4.72-1.33-4.68-4.74s1.44-4.37,4.56-4.34C947,495.56,957,495.5,967,495.5Z" transform="translate(-569.41 -275.4)"/><path class="cls-1" d="M922.48,504.38c-3.81.49-6.18,0.25-6.15-4.59s2.7-4.28,5.75-4.34c3.21-.06,5.69-0.16,5.58,4.49C927.55,504.25,925.84,505.19,922.48,504.38Z" transform="translate(-569.41 -275.4)"/><path class="cls-1" d="M921.94,541.44c-3.24.39-5.54,0.27-5.61-4.35-0.08-5,2.66-4.56,5.95-4.65,3.48-.11,5.39.36,5.38,4.72C927.66,541.87,925.15,541.75,921.94,541.44Z" transform="translate(-569.41 -275.4)"/><path class="cls-1" d="M921.9,578.44c-3.26.41-5.49,0.21-5.56-4.37-0.08-5,2.73-4.5,6-4.63,3.51-.14,5.36.41,5.36,4.74C927.66,578.92,925.09,578.73,921.9,578.44Z" transform="translate(-569.41 -275.4)"/></svg>